<svg xmlns="http://www.w3.org/2000/svg" viewBox="0 0 120 120">
  <circle cx="60" cy="60" r="56" fill="#ffffff" stroke="#4abcc9" stroke-width="4"/>
  <path d="M60 28c6 10 3 16-3 22-5 5-8 10-8 17 0 9 7 16 16 16s16-7 16-16c0-7-3-12-8-17-6-6-9-12-3-22 10 6 19 20 19 35 0 16-11 29-24 33-3 1-5 1-8 0-13-4-24-17-24-33 0-15 9-29 19-35z" fill="#1a3a5c"/>
  <path d="M60 56c4 6 2 9-1 12-3 3-4 6-4 9 0 5 4 9 9 9s9-4 9-9c0-3-1-6-4-9-3-3-5-6-1-12 6 4 11 12 11 20 0 9-6 17-15 19-2 1-4 1-6 0-9-2-15-10-15-19 0-8 5-16 11-20z" fill="#4abcc9"/>
</svg>
